<?xml version="1.0" encoding="utf-8"?>
<!-- Generator: Adobe Illustrator 26.2.1, SVG Export Plug-In . SVG Version: 6.00 Build 0)  -->
<svg version="1.1" xmlns="http://www.w3.org/2000/svg" xmlns:xlink="http://www.w3.org/1999/xlink" x="0px" y="0px"
	 viewBox="0 0 215.7 114.5" style="enable-background:new 0 0 215.7 114.5;" xml:space="preserve">
<g id="Layer_3">
</g>
<g id="Layer_4">
</g>
<g id="Layer_2">
</g>
<g id="Layer_1">
	<g>
		<path fill="#fff" d="M143.6,92.3v4.5H158V76.8C154.6,83.1,149.6,88.4,143.6,92.3z"/>
		<path fill="#fff" d="M142.9,52.2c0.2,1.3,0.4,2.6,0.4,3.9c0,12.8-10.4,23.2-23.2,23.2c-12.8,0-23.2-10.4-23.2-23.2c0-12.8,10.4-23.2,23.2-23.2
			c7.3,0,13.7,3.3,18,8.6V23.1c-5.3-2.9-11.5-4.6-18-4.6c-10.4,0-19.8,4.2-26.6,11c-6.8,6.8-11,16.2-11,26.6
			c0,10.4,4.2,19.8,11,26.6c6.8,6.8,16.2,11,26.6,11c10.4,0,19.8-4.2,26.6-11c4.6-4.6,8-10.5,9.7-17L142.9,52.2z"/>
		<polygon fill="#fff" points="143.7,45 162.2,63.5 174.6,75.9 195.8,97.2 210.1,97.2 210.1,26.3 196.3,40 196.3,78.1 143.7,26.2 		"/>
		<path fill="#fff" d="M63.4,58.5v37.9h13.4V26.3L41.4,61.8L5.6,26.1v19.1l0,0l0,1.2c0,16.9,0,33.8,0.1,50.7h13.4V58.6l22.1,22.2L63.4,58.5z"/>
	</g>
</g>
</svg>
